<svg viewBox="0 0 20 20" fill="none" xmlns="http://www.w3.org/2000/svg">
<g id="bxs:phone">
<path id="Vector" d="M17.0725 14.2833L13.685 11.2033C13.5249 11.0578 13.3144 10.9802 13.0982 10.9869C12.8819 10.9935 12.6767 11.084 12.5258 11.2392L10.5317 13.29C10.0517 13.1983 9.08666 12.8975 8.09332 11.9067C7.09999 10.9125 6.79916 9.945 6.70999 9.46833L8.75916 7.47333C8.9145 7.3226 9.0051 7.11735 9.01179 6.901C9.01848 6.68466 8.94073 6.4742 8.79499 6.31416L5.71582 2.9275C5.57003 2.76696 5.36739 2.66958 5.15095 2.65605C4.93451 2.64251 4.72132 2.71388 4.55666 2.855L2.74832 4.40583C2.60425 4.55043 2.51826 4.74287 2.50666 4.94666C2.49416 5.155 2.25582 10.09 6.08249 13.9183C9.42082 17.2558 13.6025 17.5 14.7542 17.5C14.9225 17.5 15.0258 17.495 15.0533 17.4933C15.2571 17.4819 15.4494 17.3955 15.5933 17.2508L17.1433 15.4417C17.285 15.2775 17.3569 15.0645 17.3437 14.8481C17.3304 14.6317 17.2331 14.429 17.0725 14.2833Z" fill="#FF0000"/>
</g>
</svg>
