<svg width="185" height="219" viewBox="0 0 185 219" fill="none" xmlns="http://www.w3.org/2000/svg">
<path id="Vector" d="M164.891 0H20.1087C14.7755 0 9.66081 2.1364 5.8897 5.93922C2.11859 9.74204 0 14.8998 0 20.2778V198.722C0 204.1 2.11859 209.258 5.8897 213.061C9.66081 216.864 14.7755 219 20.1087 219H164.891C170.224 219 175.339 216.864 179.11 213.061C182.881 209.258 185 204.1 185 198.722V20.2778C185 14.8998 182.881 9.74204 179.11 5.93922C175.339 2.1364 170.224 0 164.891 0ZM160.87 194.667H24.1304V24.3333H160.87V194.667ZM44.2391 56.7778C44.2391 53.551 45.5103 50.4563 47.7729 48.1746C50.0356 45.8929 53.1045 44.6111 56.3043 44.6111H128.696C131.896 44.6111 134.964 45.8929 137.227 48.1746C139.49 50.4563 140.761 53.551 140.761 56.7778C140.761 60.0046 139.49 63.0992 137.227 65.3809C134.964 67.6626 131.896 68.9444 128.696 68.9444H56.3043C53.1045 68.9444 50.0356 67.6626 47.7729 65.3809C45.5103 63.0992 44.2391 60.0046 44.2391 56.7778ZM84.4565 109.5C84.4565 112.708 83.513 115.845 81.7454 118.513C79.9777 121.18 77.4653 123.26 74.5258 124.487C71.5863 125.715 68.3517 126.036 65.2312 125.411C62.1106 124.785 59.2442 123.24 56.9944 120.971C54.7446 118.702 53.2124 115.812 52.5917 112.665C51.971 109.518 52.2896 106.256 53.5072 103.292C54.7247 100.328 56.7866 97.7942 59.4321 96.0117C62.0776 94.2292 65.1879 93.2778 68.3696 93.2778C72.6361 93.2778 76.7279 94.9869 79.7448 98.0292C82.7616 101.071 84.4565 105.198 84.4565 109.5ZM132.717 109.5C132.717 112.708 131.774 115.845 130.006 118.513C128.239 121.18 125.726 123.26 122.787 124.487C119.847 125.715 116.613 126.036 113.492 125.411C110.371 124.785 107.505 123.24 105.255 120.971C103.005 118.702 101.473 115.812 100.853 112.665C100.232 109.518 100.55 106.256 101.768 103.292C102.986 100.328 105.048 97.7942 107.693 96.0117C110.338 94.2292 113.449 93.2778 116.63 93.2778C120.897 93.2778 124.989 94.9869 128.006 98.0292C131.023 101.071 132.717 105.198 132.717 109.5ZM84.4565 158.167C84.4565 161.375 83.513 164.512 81.7454 167.179C79.9777 169.847 77.4653 171.926 74.5258 173.154C71.5863 174.382 68.3517 174.703 65.2312 174.077C62.1106 173.451 59.2442 171.906 56.9944 169.637C54.7446 167.369 53.2124 164.478 52.5917 161.331C51.971 158.185 52.2896 154.923 53.5072 151.959C54.7247 148.994 56.7866 146.461 59.4321 144.678C62.0776 142.896 65.1879 141.944 68.3696 141.944C72.6361 141.944 76.7279 143.654 79.7448 146.696C82.7616 149.738 84.4565 153.864 84.4565 158.167ZM132.717 158.167C132.717 161.375 131.774 164.512 130.006 167.179C128.239 169.847 125.726 171.926 122.787 173.154C119.847 174.382 116.613 174.703 113.492 174.077C110.371 173.451 107.505 171.906 105.255 169.637C103.005 167.369 101.473 164.478 100.853 161.331C100.232 158.185 100.55 154.923 101.768 151.959C102.986 148.994 105.048 146.461 107.693 144.678C110.338 142.896 113.449 141.944 116.63 141.944C120.897 141.944 124.989 143.654 128.006 146.696C131.023 149.738 132.717 153.864 132.717 158.167Z" fill="#E6E6E6"/>
</svg>
