<svg viewBox="0 0 68 70" fill="none" xmlns="http://www.w3.org/2000/svg">
<g id="ph:calculator-bold">
<path id="Vector" d="M53.125 5.46875H14.875C13.466 5.46875 12.1148 6.04492 11.1185 7.07051C10.1222 8.0961 9.5625 9.4871 9.5625 10.9375V59.0625C9.5625 60.5129 10.1222 61.9039 11.1185 62.9295C12.1148 63.9551 13.466 64.5312 14.875 64.5312H53.125C54.534 64.5312 55.8852 63.9551 56.8815 62.9295C57.8778 61.9039 58.4375 60.5129 58.4375 59.0625V10.9375C58.4375 9.4871 57.8778 8.0961 56.8815 7.07051C55.8852 6.04492 54.534 5.46875 53.125 5.46875ZM52.0625 57.9688H15.9375V12.0312H52.0625V57.9688ZM21.25 20.7812C21.25 19.911 21.5858 19.0764 22.1836 18.4611C22.7814 17.8457 23.5921 17.5 24.4375 17.5H43.5625C44.4079 17.5 45.2186 17.8457 45.8164 18.4611C46.4142 19.0764 46.75 19.911 46.75 20.7812C46.75 21.6515 46.4142 22.4861 45.8164 23.1014C45.2186 23.7168 44.4079 24.0625 43.5625 24.0625H24.4375C23.5921 24.0625 22.7814 23.7168 22.1836 23.1014C21.5858 22.4861 21.25 21.6515 21.25 20.7812ZM31.875 35C31.875 35.8653 31.6257 36.7112 31.1587 37.4306C30.6917 38.1501 30.028 38.7108 29.2514 39.042C28.4748 39.3731 27.6203 39.4597 26.7959 39.2909C25.9714 39.1221 25.2142 38.7054 24.6198 38.0936C24.0254 37.4817 23.6206 36.7022 23.4567 35.8535C23.2927 35.0049 23.3768 34.1252 23.6985 33.3258C24.0202 32.5263 24.5649 31.8431 25.2638 31.3623C25.9627 30.8816 26.7844 30.625 27.625 30.625C28.7522 30.625 29.8332 31.0859 30.6302 31.9064C31.4272 32.7269 31.875 33.8397 31.875 35ZM44.625 35C44.625 35.8653 44.3757 36.7112 43.9087 37.4306C43.4417 38.1501 42.778 38.7108 42.0014 39.042C41.2248 39.3731 40.3703 39.4597 39.5459 39.2909C38.7214 39.1221 37.9642 38.7054 37.3698 38.0936C36.7754 37.4817 36.3706 36.7022 36.2067 35.8535C36.0427 35.0049 36.1268 34.1252 36.4485 33.3258C36.7702 32.5263 37.3149 31.8431 38.0138 31.3623C38.7127 30.8816 39.5344 30.625 40.375 30.625C41.5022 30.625 42.5832 31.0859 43.3802 31.9064C44.1772 32.7269 44.625 33.8397 44.625 35ZM31.875 48.125C31.875 48.9903 31.6257 49.8362 31.1587 50.5556C30.6917 51.2751 30.028 51.8358 29.2514 52.167C28.4748 52.4981 27.6203 52.5847 26.7959 52.4159C25.9714 52.2471 25.2142 51.8304 24.6198 51.2186C24.0254 50.6067 23.6206 49.8272 23.4567 48.9785C23.2927 48.1299 23.3768 47.2502 23.6985 46.4508C24.0202 45.6513 24.5649 44.9681 25.2638 44.4873C25.9627 44.0066 26.7844 43.75 27.625 43.75C28.7522 43.75 29.8332 44.2109 30.6302 45.0314C31.4272 45.8519 31.875 46.9647 31.875 48.125ZM44.625 48.125C44.625 48.9903 44.3757 49.8362 43.9087 50.5556C43.4417 51.2751 42.778 51.8358 42.0014 52.167C41.2248 52.4981 40.3703 52.5847 39.5459 52.4159C38.7214 52.2471 37.9642 51.8304 37.3698 51.2186C36.7754 50.6067 36.3706 49.8272 36.2067 48.9785C36.0427 48.1299 36.1268 47.2502 36.4485 46.4508C36.7702 45.6513 37.3149 44.9681 38.0138 44.4873C38.7127 44.0066 39.5344 43.75 40.375 43.75C41.5022 43.75 42.5832 44.2109 43.3802 45.0314C44.1772 45.8519 44.625 46.9647 44.625 48.125Z" fill="#F0F0F0"/>
</g>
</svg>
