<svg viewBox="0 0 68 70" fill="none" xmlns="http://www.w3.org/2000/svg">
<g id="ph:calculator-bold">
<path id="Vector" d="M64.3973 39.7018C63.731 37.2395 62.5349 34.9485 60.8908 32.9854C59.2467 31.0223 57.1934 29.4334 54.8712 28.3273C52.549 27.2213 50.0127 26.6241 47.4356 26.5766C44.8586 26.5291 42.3015 27.0325 39.9393 28.0523L43.9173 12.3472C44.0867 11.6734 44.0383 10.9641 43.7789 10.319C43.5195 9.67387 43.062 9.12542 42.471 8.7508C38.5583 6.2984 33.8368 5.44118 29.2984 6.35926C24.7601 7.27734 20.7582 9.89925 18.1337 13.6741C15.5091 17.4489 14.4662 22.0828 15.2241 26.6021C15.982 31.1214 18.4817 35.1743 22.1979 37.9092L6.45397 42.3549C5.77737 42.5461 5.17865 42.9428 4.74243 43.4889C4.30621 44.0349 4.05454 44.7028 4.023 45.398C3.78684 50.0033 5.37682 54.518 8.45477 57.9819C11.5327 61.4457 15.8558 63.5854 20.5044 63.9458C25.153 64.3062 29.7604 62.8588 33.3465 59.9116C36.9327 56.9644 39.2147 52.7499 39.7071 48.1644L51.4563 59.4239C51.9627 59.9059 52.6093 60.2185 53.3049 60.3178C54.0005 60.4171 54.7101 60.2979 55.3336 59.9771C58.9525 58.1226 61.8232 55.1025 63.4712 51.4159C65.1193 47.7293 65.446 43.5969 64.3973 39.7018ZM30.5903 38.042C30.5903 37.3854 30.7871 36.7436 31.156 36.1976C31.5249 35.6517 32.0491 35.2262 32.6625 34.9749C33.2759 34.7237 33.9509 34.6579 34.6021 34.786C35.2533 34.9141 35.8514 35.2303 36.3209 35.6946C36.7904 36.1588 37.1101 36.7504 37.2396 37.3943C37.3691 38.0383 37.3027 38.7058 37.0486 39.3124C36.7945 39.919 36.3642 40.4375 35.8122 40.8022C35.2601 41.167 34.6111 41.3617 33.9472 41.3617C33.0569 41.3617 32.203 41.012 31.5735 40.3894C30.9439 39.7668 30.5903 38.9224 30.5903 38.042ZM32.8282 12.5906C34.1655 12.5906 35.4919 12.8277 36.7446 13.2905L32.9961 28.1298C31.5632 28.265 30.1764 28.7025 28.929 29.4126C27.6816 30.1227 26.6026 31.0889 25.7647 32.2463C23.9696 30.8046 22.6703 28.8483 22.0455 26.6466C21.4206 24.4448 21.5009 22.1057 22.2753 19.9509C23.0496 17.7961 24.48 15.9314 26.3698 14.6134C28.2595 13.2954 30.5158 12.5887 32.8282 12.5906ZM27.5131 55.7749C25.9465 56.6715 24.1833 57.1788 22.3748 57.2534C20.5664 57.3281 18.7666 56.9677 17.1299 56.2033C15.4932 55.4389 14.0685 54.2933 12.9779 52.8647C11.8873 51.4361 11.1634 49.7672 10.8683 48.0012L25.7451 43.799C26.5781 44.9608 27.6534 45.9324 28.8985 46.6482C30.1435 47.3641 31.5294 47.8075 32.9625 47.9486C32.702 49.5725 32.0774 51.1182 31.1345 52.4724C30.1915 53.8266 28.9542 54.955 27.5131 55.7749ZM56.8022 49.8104C56.1333 50.9595 55.2605 51.98 54.2258 52.8231L43.1032 42.1916C43.7036 40.8975 44.0155 39.4908 44.0179 38.067C44.0204 36.6432 43.7132 35.2355 43.1172 33.9393C45.2772 33.1238 47.6397 32.99 49.8798 33.5564C52.1199 34.1227 54.1276 35.3614 55.6268 37.1021C57.126 38.8428 58.0432 41 58.2522 43.2771C58.4612 45.5543 57.9517 47.8396 56.7939 49.8187L56.8022 49.8104Z" fill="#F0F0F0"/>
</g>
</svg>
