<svg width="24" height="24" viewBox="0 0 24 24" fill="none" xmlns="http://www.w3.org/2000/svg">
<g id="Trash  Icon">
<path id="Vector" d="M5 7.55556H19M10.25 11.1111V16.4444M13.75 11.1111V16.4444M5.875 7.55556L6.75 18.2222C6.75 18.6937 6.93437 19.1459 7.26256 19.4793C7.59075 19.8127 8.03587 20 8.5 20H15.5C15.9641 20 16.4092 19.8127 16.7374 19.4793C17.0656 19.1459 17.25 18.6937 17.25 18.2222L18.125 7.55556M9.375 7.55556V4.88889C9.375 4.65314 9.46719 4.42705 9.63128 4.26035C9.79538 4.09365 10.0179 4 10.25 4H13.75C13.9821 4 14.2046 4.09365 14.3687 4.26035C14.5328 4.42705 14.625 4.65314 14.625 4.88889V7.55556" stroke="#78858A" stroke-width="1.5" stroke-linecap="round" stroke-linejoin="round"/>
</g>
</svg>
