<svg width="16" height="16" viewBox="0 0 16 16" fill="none" xmlns="http://www.w3.org/2000/svg">
<path id="Vector" fill-rule="evenodd" clip-rule="evenodd" d="M10.0475 0.0518114C9.64173 0.167163 9.4081 0.526491 9.43922 0.987193C9.47337 1.49331 9.7018 1.76132 10.1758 1.85123C10.3058 1.87588 10.9496 1.89607 11.6066 1.89607H12.8011L10.2156 4.48664C7.86859 6.83834 7.62544 7.09533 7.57859 7.27378C7.3882 7.99931 8.12743 8.67789 8.80386 8.3985C8.91766 8.3515 9.75196 7.54672 11.535 5.76397L14.1022 3.19713V4.39258C14.1022 5.05004 14.1224 5.69439 14.147 5.82447C14.2439 6.33535 14.5179 6.54807 15.0791 6.54807C15.3834 6.54807 15.4353 6.53497 15.604 6.41578C15.707 6.34303 15.8326 6.20413 15.8833 6.10712C15.9732 5.93489 15.9756 5.86971 15.9877 3.32571L16 0.720684L15.876 0.483102C15.7752 0.290143 15.7078 0.222502 15.517 0.12276L15.2821 0L12.742 0.00396836C11.2034 0.00639357 10.1409 0.0252664 10.0475 0.0518114ZM1.60755 0.9737C0.808286 1.09368 0.16037 1.75925 0.0443263 2.57954C-0.0147754 2.99703 -0.0147754 13.9353 0.0443263 14.3528C0.165615 15.21 0.821332 15.8498 1.69569 15.9643C1.93043 15.9951 3.96369 16.0059 7.77776 15.9969C14.2263 15.9817 13.7002 16.0108 14.243 15.6392C14.566 15.418 14.8558 15.0243 14.972 14.6487C15.0419 14.4225 15.0498 14.1772 15.0498 12.2363C15.0498 10.2099 15.0447 10.0661 14.9673 9.92131C14.7807 9.57195 14.5392 9.43041 14.1255 9.42802C13.6773 9.42542 13.3286 9.66252 13.2234 10.0414C13.1944 10.146 13.1771 10.9336 13.177 12.1591L13.1767 14.1103H7.53536H1.89402V8.46619V2.82206L3.84425 2.8218C5.06912 2.82167 5.8564 2.80438 5.96094 2.77532C6.33979 2.67007 6.57659 2.32123 6.57399 1.87226C6.57166 1.46708 6.43027 1.21803 6.10299 1.04258C5.93066 0.950153 5.8809 0.94786 3.89934 0.941026C2.7843 0.937145 1.75299 0.951873 1.60755 0.9737Z" fill="#676767"/>
</svg>
