<svg width="42" height="42" viewBox="0 0 42 42" fill="none" xmlns="http://www.w3.org/2000/svg">
<g id="bi:fan">
<g id="Group">
<path id="Vector" d="M25.25 10.375C25.25 13.1651 24.604 15.7045 23.55 17.6C23.1037 17.2638 22.5953 17.0194 22.054 16.8808C21.5128 16.7422 20.9494 16.7122 20.3965 16.7925C19.8015 14.7057 18.4627 12.4575 16.4907 10.4834C16.1559 10.148 15.8079 9.82618 15.4474 9.51863C17.1783 8.68078 19.0769 8.24699 21 8.25C22.4684 8.25 23.8794 8.49863 25.1926 8.9555C25.2309 9.42088 25.25 9.89475 25.25 10.375ZM25.25 21C25.25 21.1551 25.2415 21.3103 25.2245 21.4611C27.3877 21.4207 29.8995 20.711 32.3029 19.3234C32.7167 19.084 33.1208 18.8281 33.5141 18.5562C32.8671 15.2438 30.9339 12.3226 28.1379 10.4324C28.0517 10.8893 27.9489 11.3429 27.8297 11.7924C27.1072 14.489 25.8237 16.7776 24.3107 18.3352C24.8994 19.0641 25.25 19.9928 25.25 21ZM24.9589 22.547C24.7538 23.0702 24.4474 23.5478 24.0572 23.9522C23.667 24.3567 23.2007 24.68 22.6851 24.9036C23.8007 26.7524 25.6707 28.5693 28.072 29.9548C28.497 30.2013 28.9262 30.4265 29.3576 30.6284C30.6244 29.5314 31.6619 28.1949 32.4106 26.6957C33.1593 25.1965 33.6043 23.5642 33.7202 21.8925C33.2782 22.0476 32.8256 22.19 32.3581 22.3154C29.6721 23.0358 27.0605 23.0719 24.9589 22.5491V22.547ZM21 25.25C20.0437 25.25 19.1597 24.9334 18.45 24.4C17.4002 26.2913 16.7585 28.8243 16.7585 31.6059C16.7585 32.0946 16.7797 32.577 16.8159 33.0466C18.1614 33.5135 19.5758 33.7513 21 33.75C22.9975 33.75 24.8887 33.291 26.5739 32.4708C26.2089 32.1607 25.8565 31.836 25.5177 31.4975C23.5521 29.5298 22.2134 27.2879 21.6162 25.2075C21.4165 25.2351 21.2104 25.25 21 25.25ZM16.75 21C16.75 20.83 16.7606 20.66 16.7797 20.4921C14.6122 20.5283 12.0941 21.238 9.68225 22.632C9.26986 22.87 8.8672 23.1245 8.47525 23.3949C8.79008 25.0404 9.42598 26.6078 10.3466 28.0075C11.2673 29.4073 12.4546 30.6119 13.8409 31.5527C13.9272 31.0862 14.0321 30.6233 14.1554 30.1651C14.8779 27.4727 16.1529 25.1884 17.6616 23.6307C17.0692 22.882 16.7479 21.9547 16.75 21ZM9.63762 19.657C12.33 18.9345 14.9459 18.9026 17.0496 19.4296C17.4661 18.3799 18.2885 17.5384 19.3234 17.0921C18.2099 15.2349 16.3356 13.4095 13.9237 12.0176C13.512 11.7798 13.0909 11.5587 12.6615 11.3546C11.3933 12.4492 10.3538 13.7834 9.6026 15.2807C8.85139 16.778 8.40328 18.4089 8.284 20.0799C8.72175 19.9226 9.17225 19.7824 9.63762 19.657ZM21 23.125C21.5636 23.125 22.1041 22.9011 22.5026 22.5026C22.9011 22.1041 23.125 21.5636 23.125 21C23.125 20.4364 22.9011 19.8959 22.5026 19.4974C22.1041 19.0989 21.5636 18.875 21 18.875C20.4364 18.875 19.8959 19.0989 19.4974 19.4974C19.0989 19.8959 18.875 20.4364 18.875 21C18.875 21.5636 19.0989 22.1041 19.4974 22.5026C19.8959 22.9011 20.4364 23.125 21 23.125Z" fill="#676767"/>
<path id="Vector_2" d="M21 35.875C17.0549 35.875 13.2714 34.3078 10.4818 31.5182C7.69218 28.7286 6.125 24.9451 6.125 21C6.125 17.0549 7.69218 13.2714 10.4818 10.4818C13.2714 7.69218 17.0549 6.125 21 6.125C24.9451 6.125 28.7286 7.69218 31.5182 10.4818C34.3078 13.2714 35.875 17.0549 35.875 21C35.875 24.9451 34.3078 28.7286 31.5182 31.5182C28.7286 34.3078 24.9451 35.875 21 35.875ZM21 38C25.5087 38 29.8327 36.2089 33.0208 33.0208C36.2089 29.8327 38 25.5087 38 21C38 16.4913 36.2089 12.1673 33.0208 8.97919C29.8327 5.79107 25.5087 4 21 4C16.4913 4 12.1673 5.79107 8.97919 8.97919C5.79107 12.1673 4 16.4913 4 21C4 25.5087 5.79107 29.8327 8.97919 33.0208C12.1673 36.2089 16.4913 38 21 38Z" fill="#676767"/>
</g>
</g>
</svg>
