<svg width="42" height="42" viewBox="0 0 42 42" fill="none" xmlns="http://www.w3.org/2000/svg">
<g id="bi:fan">
<g id="Group">
<g id="Group 3">
<path id="Vector 13" d="M35.8613 25.2V31.3185L21.5269 40" stroke="#676767" stroke-width="2"/>
<path id="Vector 12" d="M7.29645 25.2V31.5429L21.2592 39.4714V32.0714" stroke="#676767" stroke-width="2"/>
<path id="Vector 10" d="M14.1269 28.3714L20.9983 24.1429L27.8697 28.3714" stroke="#676767" stroke-width="2"/>
<path id="Vector 8" d="M19.9454 23.6143C19.9454 24.1666 20.3931 24.6143 20.9454 24.6143C21.4977 24.6143 21.9454 24.1666 21.9454 23.6143H19.9454ZM20.9454 3L21.4402 2.131L19.9454 1.27986V3H20.9454ZM35.7983 11.4571H36.7983V10.8758L36.2931 10.5881L35.7983 11.4571ZM21.9454 23.6143V3H19.9454V23.6143H21.9454ZM20.4506 3.869L35.3035 12.3261L36.2931 10.5881L21.4402 2.131L20.4506 3.869ZM34.7983 11.4571V31.0143H36.7983V11.4571H34.7983Z" fill="#676767"/>
<path id="Vector 7" d="M33.5443 25.0871L20.9428 32.4041L8.20583 25.0871L20.9428 17.7701L33.5443 25.0871Z" stroke="#676767" stroke-width="2"/>
</g>
</g>
<path id="Vector 14" d="M20.9583 25L15 28L20.9583 32L28 28L20.9583 25Z" fill="#676767"/>
</g>
</svg>
