<svg width="42" height="42" viewBox="0 0 42 42" fill="none" xmlns="http://www.w3.org/2000/svg">
<g id="mdi:smell">
<path id="Vector" d="M30.625 8.92501C32.375 11.2 33.25 13.3 33.25 15.75C33.25 18.725 32.025 21.525 29.05 24.675C25.725 28.175 22.75 32.025 22.75 35.875C22.75 36.575 22.925 37.275 23.1 38.15C23.1 38.325 23.1 38.5 22.925 38.675C22.75 38.85 22.575 38.675 22.575 38.5C20.825 36.225 19.95 34.125 19.95 31.675C19.95 28.7 21.175 25.9 24.15 22.75C27.475 19.25 30.45 15.4 30.45 11.55C30.45 10.85 30.275 10.15 30.1 9.27501C30.1 9.10001 30.1 8.92501 30.275 8.75001C30.45 8.75001 30.45 8.75001 30.625 8.92501ZM16.975 3.675C18.2 5.25001 18.725 7.00001 18.725 8.57501C18.725 10.85 17.675 12.95 15.575 15.225C13.125 17.85 10.85 20.825 10.85 23.625C10.85 24.15 11.025 24.85 11.2 25.2C11.2 25.375 11.2 25.375 11.025 25.55C10.85 25.725 10.675 25.55 10.675 25.55C9.275 23.8 8.75 22.05 8.75 20.475C8.75 18.2 9.8 16.1 11.9 13.825C14.35 11.2 16.625 8.22501 16.625 5.425C16.625 4.9 16.45 4.20001 16.275 3.85001V3.50001C16.625 3.50001 16.8 3.5 16.975 3.675ZM17.675 17.325C21 13.825 23.975 9.97501 23.975 6.12501C23.975 5.42501 23.8 4.72501 23.625 3.85001C23.625 3.67501 23.625 3.50001 23.8 3.32501C23.975 3.15001 24.15 3.32501 24.15 3.50001C25.9 5.77501 26.775 7.87501 26.775 10.325C26.775 13.3 25.55 16.1 22.575 19.25C19.25 22.75 16.275 26.6 16.275 30.45C16.275 31.15 16.45 31.85 16.625 32.725C16.625 32.9 16.625 33.075 16.45 33.25C16.275 33.425 16.1 33.25 16.1 33.075C14.35 30.8 13.475 28.7 13.475 26.25C13.475 23.275 14.7 20.475 17.675 17.325Z" fill="#676767"/>
</g>
</svg>
