<svg width="42" height="42" viewBox="0 0 42 42" fill="none" xmlns="http://www.w3.org/2000/svg">
<g id="icon-park:positive-dynamics">
<g id="Group">
<path id="Vector (Stroke)" fill-rule="evenodd" clip-rule="evenodd" d="M18.8333 6.79793C18.8333 5.80496 19.6293 5 20.6111 5H33.0697L9.03486 29.3074C8.34059 30.0095 7.21496 30.0095 6.5207 29.3074C5.82643 28.6052 5.82643 27.4668 6.5207 26.7647L24.4858 8.59587H20.6111C19.6293 8.59587 18.8333 7.7909 18.8333 6.79793ZM34.2222 8.90993C35.2041 8.90993 36 9.71489 36 10.7079V35.1809C36 36.1739 35.2041 36.9788 34.2222 36.9788C33.2404 36.9788 32.4444 36.1739 32.4444 35.1809V10.7079C32.4444 9.71489 33.2404 8.90993 34.2222 8.90993ZM28 15.1954C28.9818 15.1954 29.7778 16.0003 29.7778 16.9933V35.1844C29.7778 36.1774 28.9818 36.9824 28 36.9824C27.0182 36.9824 26.2222 36.1774 26.2222 35.1844V16.9933C26.2222 16.0003 27.0182 15.1954 28 15.1954ZM21.7778 21.5185C22.7596 21.5185 23.5556 22.3235 23.5556 23.3164V35.1716C23.5556 36.1645 22.7596 36.9695 21.7778 36.9695C20.7959 36.9695 20 36.1645 20 35.1716V23.3164C20 22.3235 20.7959 21.5185 21.7778 21.5185ZM15.5556 26.9855C16.5374 26.9855 17.3333 27.7905 17.3333 28.7834V35.2021C17.3333 36.195 16.5374 37 15.5556 37C14.5737 37 13.7778 36.195 13.7778 35.2021V28.7834C13.7778 27.7905 14.5737 26.9855 15.5556 26.9855ZM9.33333 31.7443C10.3152 31.7443 11.1111 32.5492 11.1111 33.5422V35.1591C11.1111 36.1521 10.3152 36.9571 9.33333 36.9571C8.35149 36.9571 7.55556 36.1521 7.55556 35.1591V33.5422C7.55556 32.5492 8.35149 31.7443 9.33333 31.7443Z" fill="#676767"/>
</g>
</g>
</svg>
